<svg width="500" height="100" viewBox="0 0 500 100" fill="none" xmlns="http://www.w3.org/2000/svg">
<g clip-path="url(#clip0_2_2)">
<mask id="path-1-outside-1_2_2" maskUnits="userSpaceOnUse" x="53" y="11" width="415" height="83" fill="black">
<rect fill="white" x="53" y="11" width="415" height="83"/>
<path d="M77.0749 17.592V75.096C77.0749 76.056 77.2989 76.76 77.7469 77.208C78.2589 77.656 79.3469 77.88 81.0109 77.88H88.1149V87H75.9229C73.3629 87 71.2189 86.808 69.4909 86.424C67.8269 86.04 66.3549 85.272 65.0749 84.12C63.8589 82.904 62.8989 81.56 62.1949 80.088C61.5549 78.616 61.0429 76.408 60.6589 73.464C60.0829 69.048 59.7949 63.128 59.7949 55.704C59.7949 48.216 59.8269 42.936 59.8909 39.864C60.0189 36.792 60.2749 33.816 60.6589 30.936C61.0429 27.992 61.5549 25.816 62.1949 24.408C62.8989 22.936 63.8589 21.624 65.0749 20.472C66.3549 19.256 67.8269 18.488 69.4909 18.168C71.2189 17.784 73.3629 17.592 75.9229 17.592H77.0749ZM80.9149 49.176H97.8109C104.083 49.176 107.219 52.056 107.219 57.816V77.784C107.219 81.752 106.899 84.28 106.259 85.368C105.683 86.456 103.955 87 101.075 87H91.9549V61.08C91.9549 60.056 91.7949 59.352 91.4749 58.968C91.2189 58.52 90.5149 58.296 89.3629 58.296H80.9149V49.176ZM80.9149 17.592H93.1069C97.7789 17.592 101.299 18.392 103.667 19.992C106.099 21.592 107.315 24.376 107.315 28.344V36.984C107.315 38.328 106.867 39 105.971 39H93.8749C92.9789 39 92.4349 38.872 92.2429 38.616C92.0509 38.36 91.9549 37.816 91.9549 36.984V29.496C91.9549 28.472 91.7949 27.768 91.4749 27.384C91.2189 26.936 90.5149 26.712 89.3629 26.712H80.9149V17.592ZM157.344 26.712H148.416C147.392 26.712 146.88 26.968 146.88 27.48V87H136.8C134.624 87 133.184 86.648 132.48 85.944C131.84 85.24 131.52 83.768 131.52 81.528V23.064C131.52 20.824 131.84 19.352 132.48 18.648C133.184 17.944 134.624 17.592 136.8 17.592H157.344V26.712ZM161.184 17.592H171.264C173.44 17.592 174.848 17.944 175.488 18.648C176.192 19.352 176.544 20.824 176.544 23.064V81.432C176.544 83.672 176.192 85.176 175.488 85.944C174.784 86.648 173.376 87 171.264 87H161.184V54.84H150.72V45.72H161.184V17.592ZM247.328 52.152L247.424 68.376C247.424 75.992 246.464 81.016 244.544 83.448C242.624 85.816 239.136 87 234.08 87H219.968V77.88H227.072C228.672 77.88 229.728 77.688 230.24 77.304C230.752 76.92 231.008 76.184 231.008 75.096V29.592C231.008 28.44 230.752 27.672 230.24 27.288C229.728 26.904 228.672 26.712 227.072 26.712H219.968V17.592H235.04C239.712 17.592 242.944 18.68 244.736 20.856C246.592 22.968 247.52 27.128 247.52 33.336L247.328 52.152ZM217.088 87.096H207.008C204.896 87.096 203.488 86.744 202.784 86.04C202.08 85.272 201.728 83.8 201.728 81.624V23.064C201.728 20.888 202.08 19.448 202.784 18.744C203.488 17.976 204.896 17.592 207.008 17.592H217.088V87.096ZM288.822 17.592V75.096C288.822 76.056 289.046 76.76 289.494 77.208C290.006 77.656 291.094 77.88 292.758 77.88H299.862V87H287.67C285.11 87 282.966 86.808 281.238 86.424C279.574 86.04 278.102 85.272 276.822 84.12C275.606 82.904 274.646 81.56 273.942 80.088C273.302 78.616 272.79 76.408 272.406 73.464C271.83 69.048 271.542 63.128 271.542 55.704C271.542 48.216 271.574 42.936 271.638 39.864C271.766 36.792 272.022 33.816 272.406 30.936C272.79 27.992 273.302 25.816 273.942 24.408C274.646 22.936 275.606 21.624 276.822 20.472C278.102 19.256 279.574 18.488 281.238 18.168C282.966 17.784 285.11 17.592 287.67 17.592H288.822ZM292.662 49.176H309.558C315.83 49.176 318.966 52.056 318.966 57.816V77.784C318.966 81.752 318.646 84.28 318.006 85.368C317.43 86.456 315.702 87 312.822 87H303.702V61.08C303.702 60.056 303.542 59.352 303.222 58.968C302.966 58.52 302.262 58.296 301.11 58.296H292.662V49.176ZM292.662 17.592H304.854C309.526 17.592 313.046 18.392 315.414 19.992C317.846 21.592 319.062 24.376 319.062 28.344V36.984C319.062 38.328 318.614 39 317.718 39H305.622C304.726 39 304.182 38.872 303.99 38.616C303.798 38.36 303.702 37.816 303.702 36.984V29.496C303.702 28.472 303.542 27.768 303.222 27.384C302.966 26.936 302.262 26.712 301.11 26.712H292.662V17.592ZM358.628 87H348.548C346.372 87 344.932 86.648 344.228 85.944C343.588 85.24 343.268 83.768 343.268 81.528V23.064C343.268 20.824 343.588 19.352 344.228 18.648C344.932 17.944 346.372 17.592 348.548 17.592H358.628V87ZM388.292 73.56V81.72C388.292 83.896 387.94 85.336 387.236 86.04C386.532 86.68 385.06 87 382.82 87H362.468V73.56H388.292ZM382.532 45.24V51C382.532 53.304 382.308 54.776 381.86 55.416C381.412 55.992 380.132 56.28 378.02 56.28H362.468V45.24H382.532ZM387.332 17.592V25.752C387.332 27.928 386.98 29.368 386.276 30.072C385.572 30.712 384.1 31.032 381.86 31.032H362.468V17.592H387.332ZM405.966 17.592H436.014C437.038 17.592 437.87 17.944 438.51 18.648C439.15 19.352 439.47 20.28 439.47 21.432V87H429.39C427.214 87 425.774 86.648 425.07 85.944C424.43 85.24 424.11 83.768 424.11 81.528V29.592H408.75C406.894 29.592 405.966 28.056 405.966 24.984V17.592ZM443.31 17.592H458.67C460.526 17.592 461.454 19.128 461.454 22.2V29.592H443.31V17.592Z"/>
</mask>
<path d="M77.0749 17.592V75.096C77.0749 76.056 77.2989 76.76 77.7469 77.208C78.2589 77.656 79.3469 77.88 81.0109 77.88H88.1149V87H75.9229C73.3629 87 71.2189 86.808 69.4909 86.424C67.8269 86.04 66.3549 85.272 65.0749 84.12C63.8589 82.904 62.8989 81.56 62.1949 80.088C61.5549 78.616 61.0429 76.408 60.6589 73.464C60.0829 69.048 59.7949 63.128 59.7949 55.704C59.7949 48.216 59.8269 42.936 59.8909 39.864C60.0189 36.792 60.2749 33.816 60.6589 30.936C61.0429 27.992 61.5549 25.816 62.1949 24.408C62.8989 22.936 63.8589 21.624 65.0749 20.472C66.3549 19.256 67.8269 18.488 69.4909 18.168C71.2189 17.784 73.3629 17.592 75.9229 17.592H77.0749ZM80.9149 49.176H97.8109C104.083 49.176 107.219 52.056 107.219 57.816V77.784C107.219 81.752 106.899 84.28 106.259 85.368C105.683 86.456 103.955 87 101.075 87H91.9549V61.08C91.9549 60.056 91.7949 59.352 91.4749 58.968C91.2189 58.52 90.5149 58.296 89.3629 58.296H80.9149V49.176ZM80.9149 17.592H93.1069C97.7789 17.592 101.299 18.392 103.667 19.992C106.099 21.592 107.315 24.376 107.315 28.344V36.984C107.315 38.328 106.867 39 105.971 39H93.8749C92.9789 39 92.4349 38.872 92.2429 38.616C92.0509 38.36 91.9549 37.816 91.9549 36.984V29.496C91.9549 28.472 91.7949 27.768 91.4749 27.384C91.2189 26.936 90.5149 26.712 89.3629 26.712H80.9149V17.592ZM157.344 26.712H148.416C147.392 26.712 146.88 26.968 146.88 27.48V87H136.8C134.624 87 133.184 86.648 132.48 85.944C131.84 85.24 131.52 83.768 131.52 81.528V23.064C131.52 20.824 131.84 19.352 132.48 18.648C133.184 17.944 134.624 17.592 136.8 17.592H157.344V26.712ZM161.184 17.592H171.264C173.44 17.592 174.848 17.944 175.488 18.648C176.192 19.352 176.544 20.824 176.544 23.064V81.432C176.544 83.672 176.192 85.176 175.488 85.944C174.784 86.648 173.376 87 171.264 87H161.184V54.84H150.72V45.72H161.184V17.592ZM247.328 52.152L247.424 68.376C247.424 75.992 246.464 81.016 244.544 83.448C242.624 85.816 239.136 87 234.08 87H219.968V77.88H227.072C228.672 77.88 229.728 77.688 230.24 77.304C230.752 76.92 231.008 76.184 231.008 75.096V29.592C231.008 28.44 230.752 27.672 230.24 27.288C229.728 26.904 228.672 26.712 227.072 26.712H219.968V17.592H235.04C239.712 17.592 242.944 18.68 244.736 20.856C246.592 22.968 247.52 27.128 247.52 33.336L247.328 52.152ZM217.088 87.096H207.008C204.896 87.096 203.488 86.744 202.784 86.04C202.08 85.272 201.728 83.8 201.728 81.624V23.064C201.728 20.888 202.08 19.448 202.784 18.744C203.488 17.976 204.896 17.592 207.008 17.592H217.088V87.096ZM288.822 17.592V75.096C288.822 76.056 289.046 76.76 289.494 77.208C290.006 77.656 291.094 77.88 292.758 77.88H299.862V87H287.67C285.11 87 282.966 86.808 281.238 86.424C279.574 86.04 278.102 85.272 276.822 84.12C275.606 82.904 274.646 81.56 273.942 80.088C273.302 78.616 272.79 76.408 272.406 73.464C271.83 69.048 271.542 63.128 271.542 55.704C271.542 48.216 271.574 42.936 271.638 39.864C271.766 36.792 272.022 33.816 272.406 30.936C272.79 27.992 273.302 25.816 273.942 24.408C274.646 22.936 275.606 21.624 276.822 20.472C278.102 19.256 279.574 18.488 281.238 18.168C282.966 17.784 285.11 17.592 287.67 17.592H288.822ZM292.662 49.176H309.558C315.83 49.176 318.966 52.056 318.966 57.816V77.784C318.966 81.752 318.646 84.28 318.006 85.368C317.43 86.456 315.702 87 312.822 87H303.702V61.08C303.702 60.056 303.542 59.352 303.222 58.968C302.966 58.52 302.262 58.296 301.11 58.296H292.662V49.176ZM292.662 17.592H304.854C309.526 17.592 313.046 18.392 315.414 19.992C317.846 21.592 319.062 24.376 319.062 28.344V36.984C319.062 38.328 318.614 39 317.718 39H305.622C304.726 39 304.182 38.872 303.99 38.616C303.798 38.36 303.702 37.816 303.702 36.984V29.496C303.702 28.472 303.542 27.768 303.222 27.384C302.966 26.936 302.262 26.712 301.11 26.712H292.662V17.592ZM358.628 87H348.548C346.372 87 344.932 86.648 344.228 85.944C343.588 85.24 343.268 83.768 343.268 81.528V23.064C343.268 20.824 343.588 19.352 344.228 18.648C344.932 17.944 346.372 17.592 348.548 17.592H358.628V87ZM388.292 73.56V81.72C388.292 83.896 387.94 85.336 387.236 86.04C386.532 86.68 385.06 87 382.82 87H362.468V73.56H388.292ZM382.532 45.24V51C382.532 53.304 382.308 54.776 381.86 55.416C381.412 55.992 380.132 56.28 378.02 56.28H362.468V45.24H382.532ZM387.332 17.592V25.752C387.332 27.928 386.98 29.368 386.276 30.072C385.572 30.712 384.1 31.032 381.86 31.032H362.468V17.592H387.332ZM405.966 17.592H436.014C437.038 17.592 437.87 17.944 438.51 18.648C439.15 19.352 439.47 20.28 439.47 21.432V87H429.39C427.214 87 425.774 86.648 425.07 85.944C424.43 85.24 424.11 83.768 424.11 81.528V29.592H408.75C406.894 29.592 405.966 28.056 405.966 24.984V17.592ZM443.31 17.592H458.67C460.526 17.592 461.454 19.128 461.454 22.2V29.592H443.31V17.592Z" fill="#1B1B1B"/>
<path d="M77.0749 17.592H83.0749V11.592H77.0749V17.592ZM77.7469 77.208L73.5042 81.4506L73.6455 81.5919L73.7958 81.7235L77.7469 77.208ZM88.1149 77.88H94.1149V71.88H88.1149V77.88ZM88.1149 87V93H94.1149V87H88.1149ZM69.4909 86.424L68.1417 92.2703L68.1655 92.2758L68.1893 92.2811L69.4909 86.424ZM65.0749 84.12L60.8322 88.3626L60.9438 88.4742L61.0611 88.5798L65.0749 84.12ZM62.1949 80.088L56.6925 82.4804L56.7355 82.5794L56.7821 82.6767L62.1949 80.088ZM60.6589 73.464L66.6085 72.688L66.6085 72.688L60.6589 73.464ZM59.8909 39.864L53.8961 39.6142L53.8935 39.6766L53.8922 39.739L59.8909 39.864ZM60.6589 30.936L66.6062 31.729L66.6074 31.7205L66.6085 31.712L60.6589 30.936ZM62.1949 24.408L56.7821 21.8193L56.7569 21.872L56.7327 21.9252L62.1949 24.408ZM65.0749 20.472L69.2013 24.8277L69.2074 24.822L65.0749 20.472ZM69.4909 18.168L70.624 24.06L70.7085 24.0438L70.7925 24.0251L69.4909 18.168ZM80.9149 49.176V43.176H74.9149V49.176H80.9149ZM106.259 85.368L101.087 82.3259L101.019 82.4418L100.956 82.5607L106.259 85.368ZM91.9549 87H85.9549V93H91.9549V87ZM91.4749 58.968L86.2654 61.9448L86.5274 62.4034L86.8656 62.8091L91.4749 58.968ZM80.9149 58.296H74.9149V64.296H80.9149V58.296ZM80.9149 17.592V11.592H74.9149V17.592H80.9149ZM103.667 19.992L100.308 24.9635L100.338 24.9842L100.369 25.0045L103.667 19.992ZM91.4749 27.384L86.2654 30.3608L86.5274 30.8194L86.8655 31.2251L91.4749 27.384ZM80.9149 26.712H74.9149V32.712H80.9149V26.712ZM71.0749 17.592V75.096H83.0749V17.592H71.0749ZM71.0749 75.096C71.0749 76.8404 71.4663 79.4127 73.5042 81.4506L81.9895 72.9654C83.1315 74.1073 83.0749 75.2716 83.0749 75.096H71.0749ZM73.7958 81.7235C75.1792 82.9339 76.7512 83.3858 77.737 83.5887C78.823 83.8123 79.952 83.88 81.0109 83.88V71.88C80.7256 71.88 80.5109 71.8703 80.3576 71.8578C80.201 71.845 80.141 71.832 80.1568 71.8353C80.166 71.8372 80.3198 71.8683 80.5623 71.9701C80.8005 72.0702 81.2291 72.2823 81.6979 72.6925L73.7958 81.7235ZM81.0109 83.88H88.1149V71.88H81.0109V83.88ZM82.1149 77.88V87H94.1149V77.88H82.1149ZM88.1149 81H75.9229V93H88.1149V81ZM75.9229 81C73.6248 81 71.9502 80.8241 70.7925 80.5669L68.1893 92.2811C70.4876 92.7919 73.1009 93 75.9229 93V81ZM70.84 80.5777C70.1761 80.4244 69.619 80.1376 69.0887 79.6602L61.0611 88.5798C63.0907 90.4064 65.4776 91.6556 68.1417 92.2703L70.84 80.5777ZM69.3175 79.8774C68.5563 79.1162 68.0027 78.3251 67.6077 77.4993L56.7821 82.6767C57.7951 84.7949 59.1614 86.6918 60.8322 88.3626L69.3175 79.8774ZM67.6973 77.6956C67.3965 77.0039 66.9703 75.462 66.6085 72.688L54.7093 74.24C55.1154 77.354 55.7132 80.2281 56.6925 82.4804L67.6973 77.6956ZM66.6085 72.688C66.0808 68.6422 65.7949 63.015 65.7949 55.704H53.7949C53.7949 63.241 54.085 69.4538 54.7093 74.24L66.6085 72.688ZM65.7949 55.704C65.7949 48.2155 65.827 42.9918 65.8896 39.989L53.8922 39.739C53.8267 42.8802 53.7949 48.2165 53.7949 55.704H65.7949ZM65.8857 40.1138C66.0065 37.213 66.2476 34.4187 66.6062 31.729L54.7115 30.143C54.3021 33.2133 54.0312 36.371 53.8961 39.6142L65.8857 40.1138ZM66.6085 31.712C66.9725 28.9211 67.396 27.4652 67.6571 26.8908L56.7327 21.9252C55.7138 24.1668 55.1132 27.0629 54.7093 30.16L66.6085 31.712ZM67.6077 26.9967C67.9862 26.2052 68.5042 25.4881 69.2013 24.8277L60.9484 16.1163C59.2135 17.7599 57.8115 19.6668 56.7821 21.8193L67.6077 26.9967ZM69.2074 24.822C69.6923 24.3613 70.1353 24.154 70.624 24.06L68.3578 12.276C65.5184 12.822 63.0175 14.1507 60.9424 16.122L69.2074 24.822ZM70.7925 24.0251C71.9502 23.7678 73.6248 23.592 75.9229 23.592V11.592C73.1009 11.592 70.4876 11.8001 68.1893 12.3109L70.7925 24.0251ZM75.9229 23.592H77.0749V11.592H75.9229V23.592ZM80.9149 55.176H97.8109V43.176H80.9149V55.176ZM97.8109 55.176C100.143 55.176 100.772 55.7221 100.808 55.7552C100.827 55.772 100.901 55.8357 100.991 56.0831C101.093 56.3644 101.219 56.9045 101.219 57.816H113.219C113.219 53.8735 112.122 49.8526 108.925 46.9168C105.825 44.0699 101.751 43.176 97.8109 43.176V55.176ZM101.219 57.816V77.784H113.219V57.816H101.219ZM101.219 77.784C101.219 79.6382 101.142 80.9858 101.026 81.9025C100.969 82.3572 100.912 82.6221 100.88 82.7424C100.839 82.895 100.873 82.691 101.087 82.3259L111.43 88.4101C112.402 86.7587 112.752 84.8256 112.931 83.4095C113.135 81.7982 113.219 79.8978 113.219 77.784H101.219ZM100.956 82.5607C101.312 81.8881 101.777 81.4449 102.143 81.1859C102.485 80.9438 102.726 80.87 102.729 80.8689C102.738 80.866 102.617 80.9038 102.315 80.9394C102.021 80.9742 101.613 81 101.075 81V93C102.811 93 104.646 92.846 106.333 92.3151C107.996 91.7913 110.25 90.6536 111.562 88.1753L100.956 82.5607ZM101.075 81H91.9549V93H101.075V81ZM97.9549 87V61.08H85.9549V87H97.9549ZM97.9549 61.08C97.9549 59.8839 97.8606 57.2585 96.0842 55.1269L86.8656 62.8091C86.2106 62.0231 86.0272 61.3035 85.9841 61.1137C85.9333 60.8903 85.9549 60.8457 85.9549 61.08H97.9549ZM96.6843 55.9912C95.5417 53.9916 93.7446 53.1189 92.5741 52.7464C91.4008 52.3731 90.2517 52.296 89.3629 52.296V64.296C89.6261 64.296 89.405 64.3309 88.9357 64.1816C88.4692 64.0331 87.152 63.4964 86.2654 61.9448L96.6843 55.9912ZM89.3629 52.296H80.9149V64.296H89.3629V52.296ZM86.9149 58.296V49.176H74.9149V58.296H86.9149ZM80.9149 23.592H93.1069V11.592H80.9149V23.592ZM93.1069 23.592C97.2711 23.592 99.3804 24.3369 100.308 24.9635L107.026 15.0205C103.217 12.447 98.2866 11.592 93.1069 11.592V23.592ZM100.369 25.0045C100.536 25.1141 101.315 25.5873 101.315 28.344H113.315C113.315 23.1646 111.662 18.0699 106.965 14.9795L100.369 25.0045ZM101.315 28.344V36.984H113.315V28.344H101.315ZM101.315 36.984C101.315 37.1788 101.248 36.2757 101.987 35.1678C102.409 34.5343 103.04 33.9253 103.876 33.5074C104.686 33.102 105.441 33 105.971 33V45C108.167 45 110.498 44.0334 111.971 41.8242C113.158 40.0443 113.315 38.1332 113.315 36.984H101.315ZM105.971 33H93.8749V45H105.971V33ZM93.8749 33C93.648 33 93.8044 32.9777 94.1691 33.0635C94.3639 33.1093 94.7541 33.2171 95.2283 33.4645C95.7039 33.7126 96.4179 34.1826 97.0429 35.016L87.4429 42.216C88.8161 44.0469 90.7027 44.5756 91.4206 44.7445C92.3294 44.9583 93.2058 45 93.8749 45V33ZM97.0429 35.016C97.4486 35.557 97.6581 36.0485 97.7622 36.3377C97.8704 36.6382 97.9167 36.8664 97.9356 36.9733C97.9705 37.1712 97.9549 37.2068 97.9549 36.984H85.9549C85.9549 37.5932 85.9872 38.3168 86.1182 39.0587C86.227 39.6757 86.5101 40.9722 87.4429 42.216L97.0429 35.016ZM97.9549 36.984V29.496H85.9549V36.984H97.9549ZM97.9549 29.496C97.9549 28.2999 97.8606 25.6745 96.0842 23.5429L86.8655 31.2251C86.2106 30.4391 86.0272 29.7195 85.9841 29.5297C85.9333 29.3063 85.9549 29.2617 85.9549 29.496H97.9549ZM96.6843 24.4072C95.5417 22.4075 93.7445 21.5349 92.5741 21.1624C91.4008 20.7891 90.2517 20.712 89.3629 20.712V32.712C89.6261 32.712 89.405 32.7469 88.9357 32.5976C88.4692 32.4491 87.1521 31.9124 86.2654 30.3608L96.6843 24.4072ZM89.3629 20.712H80.9149V32.712H89.3629V20.712ZM86.9149 26.712V17.592H74.9149V26.712H86.9149ZM157.344 26.712V32.712H163.344V26.712H157.344ZM146.88 87V93H152.88V87H146.88ZM132.48 85.944L128.041 89.98L128.137 90.0857L128.238 90.1866L132.48 85.944ZM132.48 18.648L128.238 14.4054L128.137 14.5063L128.041 14.612L132.48 18.648ZM157.344 17.592H163.344V11.592H157.344V17.592ZM161.184 17.592V11.592H155.184V17.592H161.184ZM175.488 18.648L171.049 22.684L171.145 22.7897L171.246 22.8906L175.488 18.648ZM175.488 85.944L179.731 90.1866L179.823 90.0945L179.911 89.9983L175.488 85.944ZM161.184 87H155.184V93H161.184V87ZM161.184 54.84H167.184V48.84H161.184V54.84ZM150.72 54.84H144.72V60.84H150.72V54.84ZM150.72 45.72V39.72H144.72V45.72H150.72ZM161.184 45.72V51.72H167.184V45.72H161.184ZM157.344 20.712H148.416V32.712H157.344V20.712ZM148.416 20.712C147.598 20.712 146.091 20.7825 144.581 21.5374C143.741 21.9573 142.751 22.6654 141.984 23.8158C141.192 25.0038 140.88 26.3021 140.88 27.48H152.88C152.88 28.4019 152.633 29.4762 151.969 30.4722C151.33 31.4306 150.531 31.9787 149.948 32.2706C148.95 32.7694 148.211 32.712 148.416 32.712V20.712ZM140.88 27.48V87H152.88V27.48H140.88ZM146.88 81H136.8V93H146.88V81ZM136.8 81C136.414 81 136.113 80.9842 135.888 80.9622C135.659 80.94 135.542 80.9147 135.513 80.9076C135.48 80.8996 135.594 80.9232 135.797 81.0235C136.004 81.1254 136.352 81.3305 136.723 81.7014L128.238 90.1866C129.657 91.6059 131.363 92.2465 132.664 92.5644C134.012 92.8939 135.434 93 136.8 93V81ZM136.92 81.908C137.288 82.3123 137.471 82.6724 137.55 82.8502C137.629 83.0294 137.639 83.1104 137.623 83.0374C137.609 82.9701 137.581 82.8144 137.558 82.5487C137.536 82.2861 137.52 81.9491 137.52 81.528H125.52C125.52 82.8907 125.614 84.2826 125.897 85.5866C126.163 86.808 126.713 88.52 128.041 89.98L136.92 81.908ZM137.52 81.528V23.064H125.52V81.528H137.52ZM137.52 23.064C137.52 22.6429 137.536 22.3059 137.558 22.0433C137.581 21.7775 137.609 21.6219 137.623 21.5546C137.639 21.4816 137.629 21.5626 137.55 21.7418C137.471 21.9196 137.288 22.2797 136.92 22.684L128.041 14.612C126.713 16.072 126.163 17.784 125.897 19.0054C125.614 20.3094 125.52 21.7013 125.52 23.064H137.52ZM136.723 22.8906C136.352 23.2615 136.004 23.4666 135.797 23.5685C135.594 23.6688 135.48 23.6924 135.513 23.6844C135.542 23.6773 135.659 23.652 135.888 23.6298C136.113 23.6078 136.414 23.592 136.8 23.592V11.592C135.434 11.592 134.012 11.6981 132.664 12.0276C131.363 12.3455 129.657 12.9861 128.238 14.4054L136.723 22.8906ZM136.8 23.592H157.344V11.592H136.8V23.592ZM151.344 17.592V26.712H163.344V17.592H151.344ZM161.184 23.592H171.264V11.592H161.184V23.592ZM171.264 23.592C171.651 23.592 171.948 23.6079 172.166 23.6293C172.273 23.6398 172.354 23.651 172.412 23.6605C172.44 23.6651 172.461 23.6692 172.476 23.6721C172.49 23.6751 172.497 23.6769 172.497 23.6769C172.497 23.6768 172.489 23.6748 172.474 23.6702C172.458 23.6655 172.434 23.6579 172.403 23.6465C172.341 23.6242 172.242 23.5843 172.115 23.5188C171.865 23.39 171.46 23.1362 171.049 22.684L179.928 14.612C178.494 13.035 176.698 12.3577 175.408 12.0351C174.055 11.6969 172.625 11.592 171.264 11.592V23.592ZM171.246 22.8906C170.86 22.5047 170.652 22.1443 170.552 21.9396C170.454 21.7374 170.434 21.6295 170.445 21.6754C170.455 21.7167 170.482 21.8484 170.505 22.0944C170.528 22.3372 170.544 22.6569 170.544 23.064H182.544C182.544 21.6756 182.44 20.2391 182.116 18.8846C181.806 17.5898 181.174 15.848 179.731 14.4054L171.246 22.8906ZM170.544 23.064V81.432H182.544V23.064H170.544ZM170.544 81.432C170.544 81.8387 170.528 82.1623 170.505 82.4124C170.481 82.6651 170.453 82.8116 170.438 82.8727C170.423 82.9373 170.434 82.8638 170.509 82.7011C170.586 82.5366 170.752 82.2319 171.065 81.8897L179.911 89.9983C181.216 88.5756 181.817 86.913 182.123 85.6073C182.439 84.2561 182.544 82.8258 182.544 81.432H170.544ZM171.246 81.7014C171.601 81.3456 171.937 81.1437 172.145 81.0394C172.35 80.9371 172.469 80.9102 172.449 80.9151C172.432 80.9194 172.33 80.9427 172.119 80.9638C171.911 80.9846 171.63 81 171.264 81V93C172.61 93 174.018 92.8923 175.36 92.5569C176.665 92.2305 178.336 91.5819 179.731 90.1866L171.246 81.7014ZM171.264 81H161.184V93H171.264V81ZM167.184 87V54.84H155.184V87H167.184ZM161.184 48.84H150.72V60.84H161.184V48.84ZM156.72 54.84V45.72H144.72V54.84H156.72ZM150.72 51.72H161.184V39.72H150.72V51.72ZM167.184 45.72V17.592H155.184V45.72H167.184ZM247.328 52.152L241.328 52.0908L241.328 52.1391L241.328 52.1875L247.328 52.152ZM247.424 68.376H253.424V68.3582L253.424 68.3405L247.424 68.376ZM244.544 83.448L249.204 87.2268L249.229 87.1965L249.253 87.1659L244.544 83.448ZM219.968 87H213.968V93H219.968V87ZM219.968 77.88V71.88H213.968V77.88H219.968ZM230.24 77.304L233.84 82.104L233.84 82.104L230.24 77.304ZM230.24 27.288L233.84 22.488L233.84 22.488L230.24 27.288ZM219.968 26.712H213.968V32.712H219.968V26.712ZM219.968 17.592V11.592H213.968V17.592H219.968ZM244.736 20.856L240.104 24.6702L240.165 24.7445L240.229 24.8167L244.736 20.856ZM247.52 33.336L253.52 33.3972L253.52 33.3666V33.336H247.52ZM217.088 87.096V93.096H223.088V87.096H217.088ZM202.784 86.04L198.361 90.0943L198.449 90.1905L198.541 90.2826L202.784 86.04ZM202.784 18.744L207.027 22.9866L207.119 22.8945L207.207 22.7983L202.784 18.744ZM217.088 17.592H223.088V11.592H217.088V17.592ZM241.328 52.1875L241.424 68.4115L253.424 68.3405L253.328 52.1165L241.328 52.1875ZM241.424 68.376C241.424 71.9702 241.194 74.7214 240.811 76.7299C240.407 78.8394 239.929 79.6101 239.835 79.7301L249.253 87.1659C251.078 84.8539 252.04 81.8966 252.597 78.9821C253.173 75.9666 253.424 72.3978 253.424 68.376H241.424ZM239.883 79.6692C239.676 79.9247 238.494 81 234.08 81V93C239.778 93 245.572 91.7073 249.204 87.2268L239.883 79.6692ZM234.08 81H219.968V93H234.08V81ZM225.968 87V77.88H213.968V87H225.968ZM219.968 83.88H227.072V71.88H219.968V83.88ZM227.072 83.88C228.075 83.88 229.129 83.8226 230.137 83.6392C231.039 83.4753 232.496 83.1117 233.84 82.104L226.64 72.504C227.096 72.1617 227.49 71.9956 227.685 71.924C227.889 71.8492 228.006 71.83 227.991 71.8328C227.982 71.8344 227.903 71.8476 227.737 71.8596C227.574 71.8714 227.355 71.88 227.072 71.88V83.88ZM233.84 82.104C236.664 79.986 237.008 76.7743 237.008 75.096H225.008C225.008 75.2143 224.988 74.955 225.149 74.4929C225.327 73.9814 225.75 73.1712 226.64 72.504L233.84 82.104ZM237.008 75.096V29.592H225.008V75.096H237.008ZM237.008 29.592C237.008 27.9962 236.731 24.6562 233.84 22.488L226.64 32.088C225.689 31.3749 225.279 30.5159 225.124 30.0494C224.982 29.6228 225.008 29.4113 225.008 29.592H237.008ZM233.84 22.488C232.496 21.4803 231.039 21.1167 230.137 20.9528C229.129 20.7694 228.075 20.712 227.072 20.712V32.712C227.355 32.712 227.574 32.7206 227.737 32.7324C227.903 32.7444 227.982 32.7576 227.991 32.7592C228.006 32.762 227.889 32.7428 227.685 32.668C227.49 32.5964 227.096 32.4303 226.64 32.088L233.84 22.488ZM227.072 20.712H219.968V32.712H227.072V20.712ZM225.968 26.712V17.592H213.968V26.712H225.968ZM219.968 23.592H235.04V11.592H219.968V23.592ZM235.04 23.592C239.071 23.592 240.024 24.5724 240.104 24.6702L249.367 17.0418C245.864 12.7876 240.353 11.592 235.04 11.592V23.592ZM240.229 24.8167C240.215 24.8007 240.316 24.9119 240.47 25.2582C240.624 25.6048 240.802 26.1248 240.968 26.8663C241.304 28.3716 241.52 30.4913 241.52 33.336H253.52C253.52 29.9727 253.272 26.9084 252.68 24.2536C252.1 21.6557 251.093 19.0007 249.243 16.8953L240.229 24.8167ZM241.52 33.2748L241.328 52.0908L253.328 52.2132L253.52 33.3972L241.52 33.2748ZM217.088 81.096H207.008V93.096H217.088V81.096ZM207.008 81.096C206.642 81.096 206.361 81.0806 206.153 81.0598C205.942 81.0387 205.84 81.0154 205.823 81.0111C205.803 81.0062 205.923 81.0331 206.127 81.1354C206.336 81.2397 206.671 81.4416 207.027 81.7974L198.541 90.2826C199.936 91.6779 201.607 92.3265 202.913 92.6529C204.254 92.9883 205.662 93.096 207.008 93.096V81.096ZM207.207 81.9857C207.507 82.3135 207.671 82.607 207.749 82.7735C207.826 82.9375 207.84 83.0167 207.827 82.9646C207.816 82.9153 207.789 82.7831 207.766 82.5477C207.744 82.3147 207.728 82.01 207.728 81.624H195.728C195.728 82.9962 195.835 84.4114 196.156 85.7554C196.469 87.0639 197.078 88.6942 198.361 90.0943L207.207 81.9857ZM207.728 81.624V23.064H195.728V81.624H207.728ZM207.728 23.064C207.728 22.6775 207.744 22.3768 207.766 22.1513C207.788 21.9228 207.813 21.8058 207.82 21.7767C207.828 21.7438 207.805 21.8575 207.704 22.0611C207.603 22.268 207.397 22.6158 207.027 22.9866L198.541 14.5014C197.122 15.9206 196.481 17.6269 196.163 18.9273C195.834 20.2754 195.728 21.6973 195.728 23.064H207.728ZM207.207 22.7983C206.873 23.162 206.545 23.3831 206.317 23.5074C206.095 23.6283 205.953 23.6668 205.947 23.6686C205.938 23.6708 206.016 23.6493 206.207 23.6286C206.394 23.6082 206.657 23.592 207.008 23.592V11.592C204.722 11.592 200.926 11.8912 198.361 14.6897L207.207 22.7983ZM207.008 23.592H217.088V11.592H207.008V23.592ZM211.088 17.592V87.096H223.088V17.592H211.088ZM288.822 17.592H294.822V11.592H288.822V17.592ZM289.494 77.208L285.252 81.4506L285.393 81.5919L285.543 81.7235L289.494 77.208ZM299.862 77.88H305.862V71.88H299.862V77.88ZM299.862 87V93H305.862V87H299.862ZM281.238 86.424L279.889 92.2703L279.913 92.2758L279.937 92.2811L281.238 86.424ZM276.822 84.12L272.58 88.3626L272.691 88.4742L272.809 88.5798L276.822 84.12ZM273.942 80.088L268.44 82.4804L268.483 82.5794L268.53 82.6767L273.942 80.088ZM272.406 73.464L278.356 72.688L278.356 72.688L272.406 73.464ZM271.638 39.864L265.644 39.6142L265.641 39.6766L265.64 39.739L271.638 39.864ZM272.406 30.936L278.354 31.729L278.355 31.7205L278.356 31.712L272.406 30.936ZM273.942 24.408L268.53 21.8193L268.504 21.872L268.48 21.9252L273.942 24.408ZM276.822 20.472L280.949 24.8277L280.955 24.822L276.822 20.472ZM281.238 18.168L282.371 24.06L282.456 24.0438L282.54 24.0251L281.238 18.168ZM292.662 49.176V43.176H286.662V49.176H292.662ZM318.006 85.368L312.835 82.3259L312.767 82.4418L312.704 82.5607L318.006 85.368ZM303.702 87H297.702V93H303.702V87ZM303.222 58.968L298.013 61.9448L298.275 62.4034L298.613 62.8091L303.222 58.968ZM292.662 58.296H286.662V64.296H292.662V58.296ZM292.662 17.592V11.592H286.662V17.592H292.662ZM315.414 19.992L312.055 24.9635L312.086 24.9842L312.117 25.0045L315.414 19.992ZM303.222 27.384L298.013 30.3608L298.275 30.8194L298.613 31.2251L303.222 27.384ZM292.662 26.712H286.662V32.712H292.662V26.712ZM282.822 17.592V75.096H294.822V17.592H282.822ZM282.822 75.096C282.822 76.8404 283.214 79.4127 285.252 81.4506L293.737 72.9654C294.879 74.1073 294.822 75.2716 294.822 75.096H282.822ZM285.543 81.7235C286.927 82.9339 288.499 83.3858 289.484 83.5887C290.571 83.8123 291.699 83.88 292.758 83.88V71.88C292.473 71.88 292.258 71.8703 292.105 71.8578C291.948 71.845 291.889 71.832 291.904 71.8353C291.914 71.8372 292.067 71.8683 292.31 71.9701C292.548 72.0702 292.977 72.2823 293.445 72.6925L285.543 81.7235ZM292.758 83.88H299.862V71.88H292.758V83.88ZM293.862 77.88V87H305.862V77.88H293.862ZM299.862 81H287.67V93H299.862V81ZM287.67 81C285.372 81 283.698 80.8241 282.54 80.5669L279.937 92.2811C282.235 92.7919 284.848 93 287.67 93V81ZM282.588 80.5777C281.924 80.4244 281.367 80.1376 280.836 79.6602L272.809 88.5798C274.838 90.4064 277.225 91.6556 279.889 92.2703L282.588 80.5777ZM281.065 79.8774C280.304 79.1162 279.75 78.3251 279.355 77.4993L268.53 82.6767C269.543 84.7949 270.909 86.6918 272.58 88.3626L281.065 79.8774ZM279.445 77.6956C279.144 77.0039 278.718 75.462 278.356 72.688L266.457 74.24C266.863 77.354 267.461 80.2281 268.44 82.4804L279.445 77.6956ZM278.356 72.688C277.828 68.6422 277.542 63.015 277.542 55.704H265.542C265.542 63.241 265.832 69.4538 266.457 74.24L278.356 72.688ZM277.542 55.704C277.542 48.2155 277.575 42.9918 277.637 39.989L265.64 39.739C265.574 42.8802 265.542 48.2165 265.542 55.704H277.542ZM277.633 40.1138C277.754 37.213 277.995 34.4187 278.354 31.729L266.459 30.143C266.05 33.2133 265.779 36.371 265.644 39.6142L277.633 40.1138ZM278.356 31.712C278.72 28.9211 279.143 27.4652 279.405 26.8908L268.48 21.9252C267.461 24.1668 266.861 27.0629 266.457 30.16L278.356 31.712ZM279.355 26.9967C279.734 26.2052 280.252 25.4881 280.949 24.8277L272.696 16.1163C270.961 17.7599 269.559 19.6668 268.53 21.8193L279.355 26.9967ZM280.955 24.822C281.44 24.3613 281.883 24.154 282.371 24.06L280.105 12.276C277.266 12.822 274.765 14.1507 272.69 16.122L280.955 24.822ZM282.54 24.0251C283.698 23.7678 285.372 23.592 287.67 23.592V11.592C284.848 11.592 282.235 11.8001 279.937 12.3109L282.54 24.0251ZM287.67 23.592H288.822V11.592H287.67V23.592ZM292.662 55.176H309.558V43.176H292.662V55.176ZM309.558 55.176C311.89 55.176 312.52 55.7221 312.556 55.7552C312.574 55.772 312.649 55.8357 312.738 56.0831C312.841 56.3644 312.966 56.9045 312.966 57.816H324.966C324.966 53.8735 323.87 49.8526 320.673 46.9168C317.573 44.0699 313.499 43.176 309.558 43.176V55.176ZM312.966 57.816V77.784H324.966V57.816H312.966ZM312.966 77.784C312.966 79.6382 312.89 80.9858 312.774 81.9025C312.716 82.3572 312.659 82.6221 312.627 82.7424C312.587 82.895 312.62 82.691 312.835 82.3259L323.178 88.4101C324.149 86.7587 324.5 84.8256 324.679 83.4095C324.883 81.7982 324.966 79.8978 324.966 77.784H312.966ZM312.704 82.5607C313.06 81.8881 313.525 81.4449 313.89 81.1859C314.232 80.9438 314.473 80.87 314.477 80.8689C314.486 80.866 314.364 80.9038 314.063 80.9394C313.768 80.9742 313.361 81 312.822 81V93C314.558 93 316.394 92.846 318.08 92.3151C319.744 91.7913 321.997 90.6536 323.309 88.1753L312.704 82.5607ZM312.822 81H303.702V93H312.822V81ZM309.702 87V61.08H297.702V87H309.702ZM309.702 61.08C309.702 59.8839 309.608 57.2585 307.832 55.1269L298.613 62.8091C297.958 62.0231 297.775 61.3035 297.732 61.1137C297.681 60.8903 297.702 60.8457 297.702 61.08H309.702ZM308.432 55.9912C307.289 53.9916 305.492 53.1189 304.322 52.7464C303.148 52.3731 301.999 52.296 301.11 52.296V64.296C301.374 64.296 301.152 64.3309 300.683 64.1816C300.217 64.0331 298.9 63.4964 298.013 61.9448L308.432 55.9912ZM301.11 52.296H292.662V64.296H301.11V52.296ZM298.662 58.296V49.176H286.662V58.296H298.662ZM292.662 23.592H304.854V11.592H292.662V23.592ZM304.854 23.592C309.019 23.592 311.128 24.3369 312.055 24.9635L318.774 15.0205C314.965 12.447 310.034 11.592 304.854 11.592V23.592ZM312.117 25.0045C312.283 25.1141 313.062 25.5873 313.062 28.344H325.062C325.062 23.1646 323.41 18.0699 318.712 14.9795L312.117 25.0045ZM313.062 28.344V36.984H325.062V28.344H313.062ZM313.062 36.984C313.062 37.1788 312.995 36.2757 313.734 35.1678C314.156 34.5343 314.787 33.9253 315.623 33.5074C316.434 33.102 317.189 33 317.718 33V45C319.914 45 322.246 44.0334 323.719 41.8242C324.905 40.0443 325.062 38.1332 325.062 36.984H313.062ZM317.718 33H305.622V45H317.718V33ZM305.622 33C305.395 33 305.552 32.9777 305.917 33.0635C306.111 33.1093 306.502 33.2171 306.976 33.4645C307.451 33.7126 308.165 34.1826 308.79 35.016L299.19 42.216C300.564 44.0469 302.45 44.5756 303.168 44.7445C304.077 44.9583 304.953 45 305.622 45V33ZM308.79 35.016C309.196 35.557 309.406 36.0485 309.51 36.3377C309.618 36.6382 309.664 36.8664 309.683 36.9733C309.718 37.1712 309.702 37.2068 309.702 36.984H297.702C297.702 37.5932 297.735 38.3168 297.866 39.0587C297.975 39.6757 298.258 40.9722 299.19 42.216L308.79 35.016ZM309.702 36.984V29.496H297.702V36.984H309.702ZM309.702 29.496C309.702 28.2999 309.608 25.6745 307.832 23.5429L298.613 31.2251C297.958 30.4391 297.775 29.7195 297.732 29.5297C297.681 29.3063 297.702 29.2617 297.702 29.496H309.702ZM308.432 24.4072C307.289 22.4075 305.492 21.5349 304.322 21.1624C303.148 20.7891 301.999 20.712 301.11 20.712V32.712C301.374 32.712 301.152 32.7469 300.683 32.5976C300.217 32.4491 298.9 31.9124 298.013 30.3608L308.432 24.4072ZM301.11 20.712H292.662V32.712H301.11V20.712ZM298.662 26.712V17.592H286.662V26.712H298.662ZM358.628 87V93H364.628V87H358.628ZM344.228 85.944L339.788 89.98L339.884 90.0857L339.985 90.1866L344.228 85.944ZM344.228 18.648L339.985 14.4054L339.884 14.5063L339.788 14.612L344.228 18.648ZM358.628 17.592H364.628V11.592H358.628V17.592ZM388.292 73.56H394.292V67.56H388.292V73.56ZM387.236 86.04L391.272 90.4796L391.378 90.3836L391.479 90.2826L387.236 86.04ZM362.468 87H356.468V93H362.468V87ZM362.468 73.56V67.56H356.468V73.56H362.468ZM382.532 45.24H388.532V39.24H382.532V45.24ZM381.86 55.416L386.596 59.0996L386.689 58.9805L386.775 58.8568L381.86 55.416ZM362.468 56.28H356.468V62.28H362.468V56.28ZM362.468 45.24V39.24H356.468V45.24H362.468ZM387.332 17.592H393.332V11.592H387.332V17.592ZM386.276 30.072L390.312 34.5116L390.418 34.4156L390.519 34.3146L386.276 30.072ZM362.468 31.032H356.468V37.032H362.468V31.032ZM362.468 17.592V11.592H356.468V17.592H362.468ZM358.628 81H348.548V93H358.628V81ZM348.548 81C348.161 81 347.861 80.9842 347.635 80.9622C347.407 80.94 347.29 80.9147 347.261 80.9076C347.228 80.8996 347.341 80.9232 347.545 81.0235C347.752 81.1254 348.1 81.3305 348.471 81.7014L339.985 90.1866C341.405 91.6059 343.111 92.2465 344.411 92.5644C345.759 92.8939 347.181 93 348.548 93V81ZM348.668 81.908C349.035 82.3123 349.219 82.6724 349.297 82.8502C349.376 83.0294 349.387 83.1104 349.371 83.0374C349.356 82.9701 349.329 82.8144 349.306 82.5487C349.283 82.2861 349.268 81.9491 349.268 81.528H337.268C337.268 82.8907 337.361 84.2826 337.645 85.5866C337.91 86.808 338.461 88.52 339.788 89.98L348.668 81.908ZM349.268 81.528V23.064H337.268V81.528H349.268ZM349.268 23.064C349.268 22.6429 349.283 22.3059 349.306 22.0433C349.329 21.7775 349.356 21.6219 349.371 21.5546C349.387 21.4816 349.376 21.5626 349.297 21.7418C349.219 21.9196 349.035 22.2797 348.668 22.684L339.788 14.612C338.461 16.072 337.91 17.784 337.645 19.0054C337.361 20.3094 337.268 21.7013 337.268 23.064H349.268ZM348.471 22.8906C348.1 23.2615 347.752 23.4666 347.545 23.5685C347.341 23.6688 347.228 23.6924 347.261 23.6844C347.29 23.6773 347.407 23.652 347.635 23.6298C347.861 23.6078 348.161 23.592 348.548 23.592V11.592C347.181 11.592 345.759 11.6981 344.411 12.0276C343.111 12.3455 341.405 12.9861 339.985 14.4054L348.471 22.8906ZM348.548 23.592H358.628V11.592H348.548V23.592ZM352.628 17.592V87H364.628V17.592H352.628ZM382.292 73.56V81.72H394.292V73.56H382.292ZM382.292 81.72C382.292 82.1065 382.276 82.4072 382.254 82.6327C382.232 82.8612 382.207 82.9782 382.2 83.0073C382.191 83.0402 382.215 82.9265 382.315 82.7229C382.417 82.516 382.622 82.1682 382.993 81.7974L391.479 90.2826C392.898 88.8634 393.538 87.1571 393.856 85.8567C394.186 84.5086 394.292 83.0867 394.292 81.72H382.292ZM383.2 81.6004C383.604 81.2328 383.964 81.0489 384.142 80.9705C384.321 80.8914 384.402 80.8811 384.329 80.8969C384.262 80.9116 384.106 80.9393 383.841 80.9622C383.578 80.9848 383.241 81 382.82 81V93C384.183 93 385.575 92.9065 386.878 92.6231C388.1 92.3575 389.812 91.8069 391.272 90.4796L383.2 81.6004ZM382.82 81H362.468V93H382.82V81ZM368.468 87V73.56H356.468V87H368.468ZM362.468 79.56H388.292V67.56H362.468V79.56ZM376.532 45.24V51H388.532V45.24H376.532ZM376.532 51C376.532 51.9942 376.481 52.6072 376.432 52.9293C376.409 53.0849 376.399 53.078 376.436 52.9608C376.457 52.897 376.498 52.7774 376.571 52.6194C376.643 52.4631 376.762 52.2366 376.945 51.9752L386.775 58.8568C387.818 57.3668 388.149 55.7007 388.296 54.7346C388.471 53.5848 388.532 52.3098 388.532 51H376.532ZM377.124 51.7324C377.71 50.9789 378.347 50.5961 378.685 50.4274C378.864 50.3375 379.007 50.284 379.095 50.2547C379.183 50.2249 379.237 50.2125 379.247 50.2103C379.258 50.2078 379.167 50.2282 378.94 50.2475C378.72 50.2663 378.417 50.28 378.02 50.28V62.28C379.286 62.28 380.629 62.1994 381.881 61.9177C382.914 61.6851 385.063 61.0706 386.596 59.0996L377.124 51.7324ZM378.02 50.28H362.468V62.28H378.02V50.28ZM368.468 56.28V45.24H356.468V56.28H368.468ZM362.468 51.24H382.532V39.24H362.468V51.24ZM381.332 17.592V25.752H393.332V17.592H381.332ZM381.332 25.752C381.332 26.1385 381.316 26.4392 381.294 26.6647C381.272 26.8932 381.247 27.0102 381.24 27.0393C381.231 27.0722 381.255 26.9585 381.355 26.7549C381.457 26.548 381.662 26.2002 382.033 25.8294L390.519 34.3146C391.938 32.8954 392.578 31.1891 392.896 29.8887C393.226 28.5406 393.332 27.1187 393.332 25.752H381.332ZM382.24 25.6324C382.644 25.2648 383.004 25.0809 383.182 25.0025C383.361 24.9234 383.442 24.9131 383.369 24.9289C383.302 24.9436 383.146 24.9713 382.881 24.9942C382.618 25.0168 382.281 25.032 381.86 25.032V37.032C383.223 37.032 384.615 36.9385 385.918 36.6551C387.14 36.3895 388.852 35.8389 390.312 34.5116L382.24 25.6324ZM381.86 25.032H362.468V37.032H381.86V25.032ZM368.468 31.032V17.592H356.468V31.032H368.468ZM362.468 23.592H387.332V11.592H362.468V23.592ZM405.966 17.592V11.592H399.966V17.592H405.966ZM438.51 18.648L434.07 22.684L434.07 22.684L438.51 18.648ZM439.47 87V93H445.47V87H439.47ZM425.07 85.944L420.63 89.98L420.726 90.0857L420.827 90.1866L425.07 85.944ZM424.11 29.592H430.11V23.592H424.11V29.592ZM443.31 17.592V11.592H437.31V17.592H443.31ZM461.454 29.592V35.592H467.454V29.592H461.454ZM443.31 29.592H437.31V35.592H443.31V29.592ZM405.966 23.592H436.014V11.592H405.966V23.592ZM436.014 23.592C435.829 23.592 435.484 23.5578 435.068 23.3818C434.641 23.2013 434.303 22.94 434.07 22.684L442.949 14.612C441.078 12.5539 438.583 11.592 436.014 11.592V23.592ZM434.07 22.684C433.825 22.4142 433.654 22.1088 433.557 21.8279C433.466 21.5641 433.47 21.4088 433.47 21.432H445.47C445.47 19.1184 444.796 16.6431 442.949 14.612L434.07 22.684ZM433.47 21.432V87H445.47V21.432H433.47ZM439.47 81H429.39V93H439.47V81ZM429.39 81C429.003 81 428.702 80.9842 428.477 80.9622C428.248 80.94 428.131 80.9147 428.102 80.9076C428.069 80.8996 428.183 80.9232 428.387 81.0235C428.594 81.1254 428.941 81.3305 429.312 81.7014L420.827 90.1866C422.246 91.6059 423.953 92.2465 425.253 92.5644C426.601 92.8939 428.023 93 429.39 93V81ZM429.509 81.908C429.877 82.3123 430.061 82.6724 430.139 82.8502C430.218 83.0294 430.229 83.1104 430.213 83.0374C430.198 82.9701 430.17 82.8144 430.147 82.5487C430.125 82.2861 430.11 81.9491 430.11 81.528H418.11C418.11 82.8907 418.203 84.2826 418.487 85.5866C418.752 86.808 419.303 88.52 420.63 89.98L429.509 81.908ZM430.11 81.528V29.592H418.11V81.528H430.11ZM424.11 23.592H408.75V35.592H424.11V23.592ZM408.75 23.592C409.129 23.592 409.752 23.6765 410.43 24.0505C411.117 24.4297 411.556 24.9389 411.797 25.3373C412.014 25.6962 412.041 25.9121 412.022 25.8154C412.004 25.727 411.966 25.468 411.966 24.984H399.966C399.966 26.9285 400.224 29.388 401.526 31.5427C403.121 34.183 405.809 35.592 408.75 35.592V23.592ZM411.966 24.984V17.592H399.966V24.984H411.966ZM443.31 23.592H458.67V11.592H443.31V23.592ZM458.67 23.592C458.291 23.592 457.667 23.5075 456.989 23.1335C456.302 22.7543 455.863 22.2451 455.622 21.8467C455.405 21.4878 455.378 21.2719 455.398 21.3685C455.416 21.457 455.454 21.716 455.454 22.2H467.454C467.454 20.2555 467.195 17.7959 465.893 15.6413C464.298 13.001 461.611 11.592 458.67 11.592V23.592ZM455.454 22.2V29.592H467.454V22.2H455.454ZM461.454 23.592H443.31V35.592H461.454V23.592ZM449.31 29.592V17.592H437.31V29.592H449.31Z" fill="url(#paint0_linear_2_2)" mask="url(#path-1-outside-1_2_2)"/>
</g>
<defs>
<linearGradient id="paint0_linear_2_2" x1="246.868" y1="-7.99998" x2="372.859" y2="101.426" gradientUnits="userSpaceOnUse">
<stop stop-color="#AC41FF"/>
<stop offset="1" stop-color="#5F6FFF"/>
</linearGradient>
<clipPath id="clip0_2_2">
<rect width="500" height="100" fill="white"/>
</clipPath>
</defs>
</svg>
