<svg width="400" height="100" viewBox="0 0 500 100" fill="none" xmlns="http://www.w3.org/2000/svg">
<g clip-path="url(#clip0_2_2)">
<mask id="path-1-outside-1_2_2" maskUnits="userSpaceOnUse" x="42" y="11" width="61" height="82" fill="black">
<rect fill="white" x="42" y="11" width="61" height="82"/>
<path d="M66.1093 17.592V75.096C66.1093 76.056 66.3333 76.76 66.7812 77.208C67.2933 77.656 68.3813 77.88 70.0453 77.88H77.1493V87H64.9573C62.3973 87 60.2533 86.808 58.5253 86.424C56.8613 86.04 55.3893 85.272 54.1093 84.12C52.8933 82.904 51.9333 81.56 51.2293 80.088C50.5893 78.616 50.0773 76.408 49.6933 73.464C49.1173 69.048 48.8293 63.128 48.8293 55.704C48.8293 48.216 48.8613 42.936 48.9253 39.864C49.0533 36.792 49.3093 33.816 49.6933 30.936C50.0773 27.992 50.5893 25.816 51.2293 24.408C51.9333 22.936 52.8933 21.624 54.1093 20.472C55.3893 19.256 56.8613 18.488 58.5253 18.168C60.2533 17.784 62.3973 17.592 64.9573 17.592H66.1093ZM69.9493 49.176H86.8453C93.1173 49.176 96.2533 52.056 96.2533 57.816V77.784C96.2533 81.752 95.9333 84.28 95.2933 85.368C94.7173 86.456 92.9893 87 90.1093 87H80.9893V61.08C80.9893 60.056 80.8293 59.352 80.5093 58.968C80.2533 58.52 79.5493 58.296 78.3973 58.296H69.9493V49.176ZM69.9493 17.592H82.1413C86.8133 17.592 90.3333 18.392 92.7013 19.992C95.1333 21.592 96.3493 24.376 96.3493 28.344V36.984C96.3493 38.328 95.9013 39 95.0053 39H82.9093C82.0133 39 81.4693 38.872 81.2773 38.616C81.0853 38.36 80.9893 37.816 80.9893 36.984V29.496C80.9893 28.472 80.8293 27.768 80.5093 27.384C80.2533 26.936 79.5493 26.712 78.3973 26.712H69.9493V17.592Z"/>
</mask>
<path d="M66.1093 17.592V75.096C66.1093 76.056 66.3333 76.76 66.7812 77.208C67.2933 77.656 68.3813 77.88 70.0453 77.88H77.1493V87H64.9573C62.3973 87 60.2533 86.808 58.5253 86.424C56.8613 86.04 55.3893 85.272 54.1093 84.12C52.8933 82.904 51.9333 81.56 51.2293 80.088C50.5893 78.616 50.0773 76.408 49.6933 73.464C49.1173 69.048 48.8293 63.128 48.8293 55.704C48.8293 48.216 48.8613 42.936 48.9253 39.864C49.0533 36.792 49.3093 33.816 49.6933 30.936C50.0773 27.992 50.5893 25.816 51.2293 24.408C51.9333 22.936 52.8933 21.624 54.1093 20.472C55.3893 19.256 56.8613 18.488 58.5253 18.168C60.2533 17.784 62.3973 17.592 64.9573 17.592H66.1093ZM69.9493 49.176H86.8453C93.1173 49.176 96.2533 52.056 96.2533 57.816V77.784C96.2533 81.752 95.9333 84.28 95.2933 85.368C94.7173 86.456 92.9893 87 90.1093 87H80.9893V61.08C80.9893 60.056 80.8293 59.352 80.5093 58.968C80.2533 58.52 79.5493 58.296 78.3973 58.296H69.9493V49.176ZM69.9493 17.592H82.1413C86.8133 17.592 90.3333 18.392 92.7013 19.992C95.1333 21.592 96.3493 24.376 96.3493 28.344V36.984C96.3493 38.328 95.9013 39 95.0053 39H82.9093C82.0133 39 81.4693 38.872 81.2773 38.616C81.0853 38.36 80.9893 37.816 80.9893 36.984V29.496C80.9893 28.472 80.8293 27.768 80.5093 27.384C80.2533 26.936 79.5493 26.712 78.3973 26.712H69.9493V17.592Z" fill="white"/>
<path d="M66.1093 17.592H72.1093V11.592H66.1093V17.592ZM66.7812 77.208L62.5386 81.4506L62.6799 81.5919L62.8302 81.7235L66.7812 77.208ZM77.1493 77.88H83.1493V71.88H77.1493V77.88ZM77.1493 87V93H83.1493V87H77.1493ZM58.5253 86.424L57.1761 92.2703L57.1999 92.2758L57.2237 92.2811L58.5253 86.424ZM54.1093 84.12L49.8666 88.3626L49.9782 88.4742L50.0955 88.5798L54.1093 84.12ZM51.2293 80.088L45.7268 82.4804L45.7699 82.5794L45.8164 82.6767L51.2293 80.088ZM49.6933 73.464L55.6429 72.688L55.6429 72.688L49.6933 73.464ZM48.9253 39.864L42.9305 39.6142L42.9279 39.6766L42.9266 39.739L48.9253 39.864ZM49.6933 30.936L55.6406 31.729L55.6417 31.7205L55.6429 31.712L49.6933 30.936ZM51.2293 24.408L45.8164 21.8193L45.7912 21.872L45.7671 21.9252L51.2293 24.408ZM54.1093 20.472L58.2357 24.8277L58.2417 24.822L54.1093 20.472ZM58.5253 18.168L59.6583 24.06L59.7428 24.0438L59.8268 24.0251L58.5253 18.168ZM69.9493 49.176V43.176H63.9493V49.176H69.9493ZM95.2933 85.368L90.1216 82.3259L90.0535 82.4418L89.9905 82.5607L95.2933 85.368ZM80.9893 87H74.9893V93H80.9893V87ZM80.5093 58.968L75.2998 61.9448L75.5618 62.4034L75.8999 62.8091L80.5093 58.968ZM69.9493 58.296H63.9493V64.296H69.9493V58.296ZM69.9493 17.592V11.592H63.9493V17.592H69.9493ZM92.7013 19.992L89.3421 24.9635L89.3727 24.9842L89.4036 25.0045L92.7013 19.992ZM80.5093 27.384L75.2998 30.3608L75.5618 30.8194L75.8999 31.2251L80.5093 27.384ZM69.9493 26.712H63.9493V32.712H69.9493V26.712ZM60.1093 17.592V75.096H72.1093V17.592H60.1093ZM60.1093 75.096C60.1093 76.8404 60.5007 79.4127 62.5386 81.4506L71.0239 72.9654C72.1659 74.1073 72.1093 75.2716 72.1093 75.096H60.1093ZM62.8302 81.7235C64.2135 82.9339 65.7856 83.3858 66.7713 83.5887C67.8574 83.8123 68.9864 83.88 70.0453 83.88V71.88C69.76 71.88 69.5453 71.8703 69.392 71.8578C69.2353 71.845 69.1754 71.832 69.1912 71.8353C69.2004 71.8372 69.3541 71.8683 69.5966 71.9701C69.8349 72.0702 70.2634 72.2823 70.7323 72.6925L62.8302 81.7235ZM70.0453 83.88H77.1493V71.88H70.0453V83.88ZM71.1493 77.88V87H83.1493V77.88H71.1493ZM77.1493 81H64.9573V93H77.1493V81ZM64.9573 81C62.6592 81 60.9845 80.8241 59.8268 80.5669L57.2237 92.2811C59.522 92.7919 62.1353 93 64.9573 93V81ZM59.8744 80.5777C59.2105 80.4244 58.6534 80.1376 58.123 79.6602L50.0955 88.5798C52.1251 90.4064 54.512 91.6556 57.1761 92.2703L59.8744 80.5777ZM58.3519 79.8774C57.5907 79.1162 57.037 78.3251 56.6421 77.4993L45.8164 82.6767C46.8295 84.7949 48.1958 86.6918 49.8666 88.3626L58.3519 79.8774ZM56.7317 77.6956C56.4309 77.0039 56.0047 75.462 55.6429 72.688L43.7436 74.24C44.1498 77.354 44.7476 80.2281 45.7268 82.4804L56.7317 77.6956ZM55.6429 72.688C55.1151 68.6422 54.8293 63.015 54.8293 55.704H42.8293C42.8293 63.241 43.1194 69.4538 43.7436 74.24L55.6429 72.688ZM54.8293 55.704C54.8293 48.2155 54.8614 42.9918 54.9239 39.989L42.9266 39.739C42.8611 42.8802 42.8293 48.2165 42.8293 55.704H54.8293ZM54.92 40.1138C55.0409 37.213 55.282 34.4187 55.6406 31.729L43.7459 30.143C43.3365 33.2133 43.0656 36.371 42.9305 39.6142L54.92 40.1138ZM55.6429 31.712C56.0069 28.9211 56.4304 27.4652 56.6914 26.8908L45.7671 21.9252C44.7481 24.1668 44.1476 27.0629 43.7436 30.16L55.6429 31.712ZM56.6421 26.9967C57.0206 26.2052 57.5386 25.4881 58.2357 24.8277L49.9828 16.1163C48.2479 17.7599 46.8459 19.6668 45.8164 21.8193L56.6421 26.9967ZM58.2417 24.822C58.7266 24.3613 59.1697 24.154 59.6583 24.06L57.3922 12.276C54.5528 12.822 52.0519 14.1507 49.9768 16.122L58.2417 24.822ZM59.8268 24.0251C60.9846 23.7678 62.6592 23.592 64.9573 23.592V11.592C62.1353 11.592 59.5219 11.8001 57.2237 12.3109L59.8268 24.0251ZM64.9573 23.592H66.1093V11.592H64.9573V23.592ZM69.9493 55.176H86.8453V43.176H69.9493V55.176ZM86.8453 55.176C89.177 55.176 89.8068 55.7221 89.8428 55.7552C89.8612 55.772 89.9355 55.8357 90.0253 56.0831C90.1274 56.3644 90.2533 56.9045 90.2533 57.816H102.253C102.253 53.8735 101.156 49.8526 97.9597 46.9168C94.8597 44.0699 90.7855 43.176 86.8453 43.176V55.176ZM90.2533 57.816V77.784H102.253V57.816H90.2533ZM90.2533 77.784C90.2533 79.6382 90.1768 80.9858 90.0608 81.9025C90.0032 82.3572 89.9461 82.6221 89.9141 82.7424C89.8736 82.895 89.9069 82.691 90.1216 82.3259L100.465 88.4101C101.436 86.7587 101.786 84.8256 101.966 83.4095C102.17 81.7982 102.253 79.8978 102.253 77.784H90.2533ZM89.9905 82.5607C90.3466 81.8881 90.8115 81.4449 91.1772 81.1859C91.5189 80.9438 91.7601 80.87 91.7635 80.8689C91.7727 80.866 91.6511 80.9038 91.3498 80.9394C91.055 80.9742 90.6477 81 90.1093 81V93C91.8451 93 93.6807 92.846 95.367 92.3151C97.0307 91.7913 99.284 90.6536 100.596 88.1753L89.9905 82.5607ZM90.1093 81H80.9893V93H90.1093V81ZM86.9893 87V61.08H74.9893V87H86.9893ZM86.9893 61.08C86.9893 59.8839 86.8949 57.2585 85.1186 55.1269L75.8999 62.8091C75.2449 62.0231 75.0616 61.3035 75.0185 61.1137C74.9677 60.8903 74.9893 60.8457 74.9893 61.08H86.9893ZM85.7187 55.9912C84.5761 53.9916 82.7789 53.1189 81.6085 52.7464C80.4352 52.3731 79.286 52.296 78.3973 52.296V64.296C78.6605 64.296 78.4393 64.3309 77.97 64.1816C77.5036 64.0331 76.1864 63.4964 75.2998 61.9448L85.7187 55.9912ZM78.3973 52.296H69.9493V64.296H78.3973V52.296ZM75.9493 58.296V49.176H63.9493V58.296H75.9493ZM69.9493 23.592H82.1413V11.592H69.9493V23.592ZM82.1413 23.592C86.3055 23.592 88.4148 24.3369 89.3421 24.9635L96.0604 15.0205C92.2517 12.447 87.321 11.592 82.1413 11.592V23.592ZM89.4036 25.0045C89.5701 25.1141 90.3493 25.5873 90.3493 28.344H102.349C102.349 23.1646 100.696 18.0699 95.999 14.9795L89.4036 25.0045ZM90.3493 28.344V36.984H102.349V28.344H90.3493ZM90.3493 36.984C90.3493 37.1788 90.2824 36.2757 91.0209 35.1678C91.4433 34.5343 92.0743 33.9253 92.91 33.5074C93.7208 33.102 94.4757 33 95.0053 33V45C97.2011 45 99.5327 44.0334 101.006 41.8242C102.192 40.0443 102.349 38.1332 102.349 36.984H90.3493ZM95.0053 33H82.9093V45H95.0053V33ZM82.9093 33C82.6823 33 82.8387 32.9777 83.2035 33.0635C83.3983 33.1093 83.7885 33.2171 84.2627 33.4645C84.7383 33.7126 85.4522 34.1826 86.0773 35.016L76.4772 42.216C77.8505 44.0469 79.7371 44.5756 80.455 44.7445C81.3638 44.9583 82.2402 45 82.9093 45V33ZM86.0773 35.016C86.483 35.557 86.6925 36.0485 86.7966 36.3377C86.9048 36.6382 86.9511 36.8664 86.97 36.9733C87.0049 37.1712 86.9893 37.2068 86.9893 36.984H74.9893C74.9893 37.5932 75.0216 38.3168 75.1526 39.0587C75.2614 39.6757 75.5444 40.9722 76.4772 42.216L86.0773 35.016ZM86.9893 36.984V29.496H74.9893V36.984H86.9893ZM86.9893 29.496C86.9893 28.2999 86.8949 25.6745 85.1186 23.5429L75.8999 31.2251C75.2449 30.4391 75.0616 29.7195 75.0185 29.5297C74.9677 29.3063 74.9893 29.2617 74.9893 29.496H86.9893ZM85.7187 24.4072C84.5761 22.4075 82.7789 21.5349 81.6085 21.1624C80.4352 20.7891 79.286 20.712 78.3973 20.712V32.712C78.6605 32.712 78.4393 32.7469 77.97 32.5976C77.5036 32.4491 76.1864 31.9124 75.2998 30.3608L85.7187 24.4072ZM78.3973 20.712H69.9493V32.712H78.3973V20.712ZM75.9493 26.712V17.592H63.9493V26.712H75.9493Z" fill="url(#paint0_linear_2_2)" mask="url(#path-1-outside-1_2_2)"/>
</g>
<defs>
<linearGradient id="paint0_linear_2_2" x1="69.165" y1="-7.99998" x2="131.184" y2="8.13711" gradientUnits="userSpaceOnUse">
<stop stop-color="#AC41FF"/>
<stop offset="1" stop-color="#5F6FFF"/>
</linearGradient>
<clipPath id="clip0_2_2">
<rect width="500" height="100" fill="white"/>
</clipPath>
</defs>
</svg>
