<svg width="93" height="100" viewBox="0 0 93 100" fill="none" xmlns="http://www.w3.org/2000/svg">
<g clip-path="url(#clip0_2_2)">
<mask id="path-1-outside-1_2_2" maskUnits="userSpaceOnUse" x="16" y="11" width="60" height="82" fill="black">
<rect fill="white" x="16" y="11" width="60" height="82"/>
<path d="M39.328 17.592V75.096C39.328 76.056 39.552 76.76 40 77.208C40.512 77.656 41.6 77.88 43.264 77.88H50.368V87H38.176C35.616 87 33.472 86.808 31.744 86.424C30.08 86.04 28.608 85.272 27.328 84.12C26.112 82.904 25.152 81.56 24.448 80.088C23.808 78.616 23.296 76.408 22.912 73.464C22.336 69.048 22.048 63.128 22.048 55.704C22.048 48.216 22.08 42.936 22.144 39.864C22.272 36.792 22.528 33.816 22.912 30.936C23.296 27.992 23.808 25.816 24.448 24.408C25.152 22.936 26.112 21.624 27.328 20.472C28.608 19.256 30.08 18.488 31.744 18.168C33.472 17.784 35.616 17.592 38.176 17.592H39.328ZM43.168 49.176H60.064C66.336 49.176 69.472 52.056 69.472 57.816V77.784C69.472 81.752 69.152 84.28 68.512 85.368C67.936 86.456 66.208 87 63.328 87H54.208V61.08C54.208 60.056 54.048 59.352 53.728 58.968C53.472 58.52 52.768 58.296 51.616 58.296H43.168V49.176ZM43.168 17.592H55.36C60.032 17.592 63.552 18.392 65.92 19.992C68.352 21.592 69.568 24.376 69.568 28.344V36.984C69.568 38.328 69.12 39 68.224 39H56.128C55.232 39 54.688 38.872 54.496 38.616C54.304 38.36 54.208 37.816 54.208 36.984V29.496C54.208 28.472 54.048 27.768 53.728 27.384C53.472 26.936 52.768 26.712 51.616 26.712H43.168V17.592Z"/>
</mask>
<path d="M39.328 17.592V75.096C39.328 76.056 39.552 76.76 40 77.208C40.512 77.656 41.6 77.88 43.264 77.88H50.368V87H38.176C35.616 87 33.472 86.808 31.744 86.424C30.08 86.04 28.608 85.272 27.328 84.12C26.112 82.904 25.152 81.56 24.448 80.088C23.808 78.616 23.296 76.408 22.912 73.464C22.336 69.048 22.048 63.128 22.048 55.704C22.048 48.216 22.08 42.936 22.144 39.864C22.272 36.792 22.528 33.816 22.912 30.936C23.296 27.992 23.808 25.816 24.448 24.408C25.152 22.936 26.112 21.624 27.328 20.472C28.608 19.256 30.08 18.488 31.744 18.168C33.472 17.784 35.616 17.592 38.176 17.592H39.328ZM43.168 49.176H60.064C66.336 49.176 69.472 52.056 69.472 57.816V77.784C69.472 81.752 69.152 84.28 68.512 85.368C67.936 86.456 66.208 87 63.328 87H54.208V61.08C54.208 60.056 54.048 59.352 53.728 58.968C53.472 58.52 52.768 58.296 51.616 58.296H43.168V49.176ZM43.168 17.592H55.36C60.032 17.592 63.552 18.392 65.92 19.992C68.352 21.592 69.568 24.376 69.568 28.344V36.984C69.568 38.328 69.12 39 68.224 39H56.128C55.232 39 54.688 38.872 54.496 38.616C54.304 38.36 54.208 37.816 54.208 36.984V29.496C54.208 28.472 54.048 27.768 53.728 27.384C53.472 26.936 52.768 26.712 51.616 26.712H43.168V17.592Z" fill="white"/>
<path d="M39.328 17.592H45.328V11.592H39.328V17.592ZM40 77.208L35.7574 81.4506L35.8986 81.5919L36.049 81.7235L40 77.208ZM50.368 77.88H56.368V71.88H50.368V77.88ZM50.368 87V93H56.368V87H50.368ZM31.744 86.424L30.3948 92.2703L30.4186 92.2758L30.4424 92.2811L31.744 86.424ZM27.328 84.12L23.0854 88.3626L23.1969 88.4742L23.3142 88.5798L27.328 84.12ZM24.448 80.088L18.9456 82.4804L18.9886 82.5794L19.0352 82.6767L24.448 80.088ZM22.912 73.464L28.8616 72.688L28.8616 72.688L22.912 73.464ZM22.144 39.864L16.1492 39.6142L16.1466 39.6766L16.1453 39.739L22.144 39.864ZM22.912 30.936L28.8594 31.729L28.8605 31.7205L28.8616 31.712L22.912 30.936ZM24.448 24.408L19.0352 21.8193L19.01 21.872L18.9858 21.9252L24.448 24.408ZM27.328 20.472L31.4545 24.8277L31.4605 24.822L27.328 20.472ZM31.744 18.168L32.8771 24.06L32.9616 24.0438L33.0456 24.0251L31.744 18.168ZM43.168 49.176V43.176H37.168V49.176H43.168ZM68.512 85.368L63.3404 82.3259L63.2722 82.4418L63.2093 82.5607L68.512 85.368ZM54.208 87H48.208V93H54.208V87ZM53.728 58.968L48.5185 61.9448L48.7806 62.4034L49.1187 62.8091L53.728 58.968ZM43.168 58.296H37.168V64.296H43.168V58.296ZM43.168 17.592V11.592H37.168V17.592H43.168ZM65.92 19.992L62.5609 24.9635L62.5915 24.9842L62.6223 25.0045L65.92 19.992ZM53.728 27.384L48.5185 30.3608L48.7806 30.8194L49.1187 31.2251L53.728 27.384ZM43.168 26.712H37.168V32.712H43.168V26.712ZM33.328 17.592V75.096H45.328V17.592H33.328ZM33.328 75.096C33.328 76.8404 33.7194 79.4127 35.7574 81.4506L44.2426 72.9654C45.3846 74.1073 45.328 75.2716 45.328 75.096H33.328ZM36.049 81.7235C37.4323 82.9339 39.0043 83.3858 39.9901 83.5887C41.0762 83.8123 42.2051 83.88 43.264 83.88V71.88C42.9788 71.88 42.7641 71.8703 42.6108 71.8578C42.4541 71.845 42.3942 71.832 42.4099 71.8353C42.4192 71.8372 42.5729 71.8683 42.8154 71.9701C43.0536 72.0702 43.4822 72.2823 43.951 72.6925L36.049 81.7235ZM43.264 83.88H50.368V71.88H43.264V83.88ZM44.368 77.88V87H56.368V77.88H44.368ZM50.368 81H38.176V93H50.368V81ZM38.176 81C35.878 81 34.2033 80.8241 33.0456 80.5669L30.4424 92.2811C32.7407 92.7919 35.354 93 38.176 93V81ZM33.0932 80.5777C32.4292 80.4244 31.8722 80.1376 31.3418 79.6602L23.3142 88.5798C25.3438 90.4064 27.7308 91.6556 30.3948 92.2703L33.0932 80.5777ZM31.5706 79.8774C30.8095 79.1162 30.2558 78.3251 29.8608 77.4993L19.0352 82.6767C20.0482 84.7949 21.4145 86.6918 23.0854 88.3626L31.5706 79.8774ZM29.9504 77.6956C29.6497 77.0039 29.2234 75.462 28.8616 72.688L16.9624 74.24C17.3686 77.354 17.9663 80.2281 18.9456 82.4804L29.9504 77.6956ZM28.8616 72.688C28.3339 68.6422 28.048 63.015 28.048 55.704H16.048C16.048 63.241 16.3381 69.4538 16.9624 74.24L28.8616 72.688ZM28.048 55.704C28.048 48.2155 28.0801 42.9918 28.1427 39.989L16.1453 39.739C16.0799 42.8802 16.048 48.2165 16.048 55.704H28.048ZM28.1388 40.1138C28.2597 37.213 28.5007 34.4187 28.8594 31.729L16.9646 30.143C16.5553 33.2133 16.2843 36.371 16.1492 39.6142L28.1388 40.1138ZM28.8616 31.712C29.2256 28.9211 29.6491 27.4652 29.9102 26.8908L18.9858 21.9252C17.9669 24.1668 17.3664 27.0629 16.9624 30.16L28.8616 31.712ZM29.8608 26.9967C30.2394 26.2052 30.7574 25.4881 31.4545 24.8277L23.2015 16.1163C21.4666 17.7599 20.0646 19.6668 19.0352 21.8193L29.8608 26.9967ZM31.4605 24.822C31.9454 24.3613 32.3885 24.154 32.8771 24.06L30.6109 12.276C27.7715 12.822 25.2706 14.1507 23.1955 16.122L31.4605 24.822ZM33.0456 24.0251C34.2033 23.7678 35.878 23.592 38.176 23.592V11.592C35.354 11.592 32.7407 11.8001 30.4424 12.3109L33.0456 24.0251ZM38.176 23.592H39.328V11.592H38.176V23.592ZM43.168 55.176H60.064V43.176H43.168V55.176ZM60.064 55.176C62.3958 55.176 63.0256 55.7221 63.0616 55.7552C63.0799 55.772 63.1542 55.8357 63.244 56.0831C63.3461 56.3644 63.472 56.9045 63.472 57.816H75.472C75.472 53.8735 74.3751 49.8526 71.1784 46.9168C68.0784 44.0699 64.0042 43.176 60.064 43.176V55.176ZM63.472 57.816V77.784H75.472V57.816H63.472ZM63.472 77.784C63.472 79.6382 63.3955 80.9858 63.2795 81.9025C63.2219 82.3572 63.1648 82.6221 63.1329 82.7424C63.0924 82.895 63.1256 82.691 63.3404 82.3259L73.6836 88.4101C74.655 86.7587 75.0052 84.8256 75.1845 83.4095C75.3885 81.7982 75.472 79.8978 75.472 77.784H63.472ZM63.2093 82.5607C63.5653 81.8881 64.0302 81.4449 64.3959 81.1859C64.7376 80.9438 64.9789 80.87 64.9823 80.8689C64.9914 80.866 64.8699 80.9038 64.5686 80.9394C64.2737 80.9742 63.8664 81 63.328 81V93C65.0638 93 66.8995 92.846 68.5857 92.3151C70.2494 91.7913 72.5027 90.6536 73.8147 88.1753L63.2093 82.5607ZM63.328 81H54.208V93H63.328V81ZM60.208 87V61.08H48.208V87H60.208ZM60.208 61.08C60.208 59.8839 60.1137 57.2585 58.3373 55.1269L49.1187 62.8091C48.4637 62.0231 48.2803 61.3035 48.2372 61.1137C48.1864 60.8903 48.208 60.8457 48.208 61.08H60.208ZM58.9375 55.9912C57.7948 53.9916 55.9977 53.1189 54.8272 52.7464C53.6539 52.3731 52.5048 52.296 51.616 52.296V64.296C51.8792 64.296 51.6581 64.3309 51.1888 64.1816C50.7223 64.0331 49.4052 63.4964 48.5185 61.9448L58.9375 55.9912ZM51.616 52.296H43.168V64.296H51.616V52.296ZM49.168 58.296V49.176H37.168V58.296H49.168ZM43.168 23.592H55.36V11.592H43.168V23.592ZM55.36 23.592C59.5243 23.592 61.6335 24.3369 62.5609 24.9635L69.2791 15.0205C65.4705 12.447 60.5397 11.592 55.36 11.592V23.592ZM62.6223 25.0045C62.7889 25.1141 63.568 25.5873 63.568 28.344H75.568C75.568 23.1646 73.9152 18.0699 69.2177 14.9795L62.6223 25.0045ZM63.568 28.344V36.984H75.568V28.344H63.568ZM63.568 36.984C63.568 37.1788 63.5011 36.2757 64.2397 35.1678C64.662 34.5343 65.293 33.9253 66.1287 33.5074C66.9396 33.102 67.6944 33 68.224 33V45C70.4198 45 72.7515 44.0334 74.2243 41.8242C75.4109 40.0443 75.568 38.1332 75.568 36.984H63.568ZM68.224 33H56.128V45H68.224V33ZM56.128 33C55.9011 33 56.0575 32.9777 56.4222 33.0635C56.617 33.1093 57.0072 33.2171 57.4814 33.4645C57.957 33.7126 58.671 34.1826 59.296 35.016L49.696 42.216C51.0692 44.0469 52.9558 44.5756 53.6738 44.7445C54.5825 44.9583 55.4589 45 56.128 45V33ZM59.296 35.016C59.7017 35.557 59.9112 36.0485 60.0153 36.3377C60.1235 36.6382 60.1698 36.8664 60.1887 36.9733C60.2236 37.1712 60.208 37.2068 60.208 36.984H48.208C48.208 37.5932 48.2404 38.3168 48.3713 39.0587C48.4802 39.6757 48.7632 40.9722 49.696 42.216L59.296 35.016ZM60.208 36.984V29.496H48.208V36.984H60.208ZM60.208 29.496C60.208 28.2999 60.1137 25.6745 58.3373 23.5429L49.1187 31.2251C48.4637 30.4391 48.2803 29.7195 48.2372 29.5297C48.1864 29.3063 48.208 29.2617 48.208 29.496H60.208ZM58.9375 24.4072C57.7948 22.4075 55.9977 21.5349 54.8272 21.1624C53.6539 20.7891 52.5048 20.712 51.616 20.712V32.712C51.8792 32.712 51.6581 32.7469 51.1888 32.5976C50.7223 32.4491 49.4052 31.9124 48.5185 30.3608L58.9375 24.4072ZM51.616 20.712H43.168V32.712H51.616V20.712ZM49.168 26.712V17.592H37.168V26.712H49.168Z" fill="url(#paint0_linear_2_2)" mask="url(#path-1-outside-1_2_2)"/>
</g>
<defs>
<linearGradient id="paint0_linear_2_2" x1="52.729" y1="-7.99998" x2="87.234" y2="-3.2323" gradientUnits="userSpaceOnUse">
<stop stop-color="#AC41FF"/>
<stop offset="1" stop-color="#5F6FFF"/>
</linearGradient>
<clipPath id="clip0_2_2">
<rect width="93" height="100" fill="white"/>
</clipPath>
</defs>
</svg>
